<?xml version="1.0" encoding="UTF-8"?>
<svg id="Camada_2" data-name="Camada 2" xmlns="http://www.w3.org/2000/svg" xmlns:xlink="http://www.w3.org/1999/xlink" viewBox="0 0 112.03 112.06">
  <defs>
    <style>
      .cls-1 {
        mask: url(#mask);
      }

      .cls-2 {
        mask: url(#mask-1);
      }

      .cls-3 {
        fill: #fff;
      }

      .cls-4 {
        fill: #18857d;
      }
    </style>
    <mask id="mask" x="0" y="-.03" width="112.03" height="112.1" maskUnits="userSpaceOnUse">
      <g id="mask10_0_1" data-name="mask10 0 1">
        <path class="cls-3" d="M112.02-.03H0v112.09h112.03V-.03Z"/>
      </g>
    </mask>
    <mask id="mask-1" x="0" y="-.03" width="112.04" height="112.09" maskUnits="userSpaceOnUse">
      <g id="mask11_0_1" data-name="mask11 0 1">
        <path class="cls-3" d="M112.02-.03H0v112.09h112.03V-.03Z"/>
      </g>
    </mask>
  </defs>
  <g id="Camada_1-2" data-name="Camada 1">
    <g>
      <g class="cls-1">
        <path class="cls-4" d="M87.75,98.98h-50.4v-1.87c0-1.03-.84-1.87-1.87-1.87h-3.74v-1.87h18.69c.56,0,1.1-.25,1.45-.69.35-.44.49-1.01.37-1.57l-6.01-28.02c-.19-.86-.94-1.48-1.82-1.48H7.88c-.88,0-1.64.62-1.82,1.48L.04,91.12c-.12.55.02,1.12.37,1.57.35.44.88.69,1.45.69h18.69v1.87h-3.74c-1.03,0-1.87.84-1.87,1.87v1.87h-3.74v3.74h3.74v1.87c0,1.03.84,1.87,1.87,1.87h3.74v1.87h-7.47v3.74h26.13v-3.74h-7.47v-1.87h3.74c1.03,0,1.87-.84,1.87-1.87v-1.87h52.26c1.03,0,1.87-.84,1.87-1.87v-7.47h-3.74v5.6ZM17.21,74.7h7.07v5.6h-7.82l.75-5.6ZM12.7,80.31h-6.52l1.2-5.6h6.06l-.75,5.6h0ZM46.13,80.31h-6.52l-.75-5.6h6.06l1.2,5.6h0ZM35.84,80.31h-7.82v-5.6h7.08l.74,5.6h0ZM36.34,84.04l.75,5.6h-9.06v-5.6h8.32,0ZM28.02,70.97v-5.6h5.83l.75,5.6h-6.58ZM24.29,70.97h-6.58l.75-5.6h5.83v5.6h0ZM24.29,84.04v5.6h-9.07l.75-5.6h8.32ZM40.86,89.64l-.75-5.6h6.82l1.2,5.6h-7.28ZM44.12,70.97h-5.76l-.75-5.6h5.3l1.2,5.6ZM14.69,65.37l-.75,5.6h-5.76l1.2-5.6h5.3ZM5.38,84.04h6.82l-.75,5.6h-7.28l1.2-5.6h0ZM18.69,102.72v-3.74h1.87v3.74h-1.87ZM24.29,108.33v-14.94h3.73v14.94h-3.73ZM33.62,102.72h-1.87v-3.74h1.87v3.74Z"/>
      </g>
      <path class="cls-4" d="M26.15,29.88c6.18,0,11.2-5.01,11.2-11.21s-5.02-11.21-11.2-11.21-11.2,5.02-11.2,11.21c0,6.19,5.02,11.2,11.2,11.21ZM26.15,11.21c4.13,0,7.47,3.35,7.47,7.47s-3.34,7.47-7.47,7.47-7.47-3.35-7.47-7.47,3.34-7.47,7.47-7.47Z"/>
      <path class="cls-4" d="M28.02,0h-3.73v3.74h3.73V0Z"/>
      <path class="cls-4" d="M11.64,6.79l2.64-2.64,2.64,2.64-2.64,2.64-2.64-2.64Z"/>
      <path class="cls-4" d="M11.22,16.81h-3.74v3.74h3.74v-3.74Z"/>
      <path class="cls-4" d="M11.64,30.56l2.64-2.64,2.64,2.64-2.64,2.64-2.64-2.64Z"/>
      <path class="cls-4" d="M28.02,33.62h-3.73v3.73h3.73v-3.73Z"/>
      <path class="cls-4" d="M35.39,30.56l2.64-2.64,2.64,2.64-2.64,2.64-2.64-2.64Z"/>
      <path class="cls-4" d="M44.82,16.81h-3.74v3.74h3.74v-3.74Z"/>
      <path class="cls-4" d="M35.39,6.79l2.64-2.64,2.64,2.64-2.64,2.64-2.64-2.64Z"/>
      <path class="cls-4" d="M67.22,24.28h16.8c2.91,0,5.55-1.7,6.77-4.35,1.22-2.65.78-5.76-1.11-7.97-1.89-2.22-4.9-3.13-7.7-2.34-.73-3.39-3.69-5.82-7.15-5.89-3.46-.07-6.51,2.25-7.37,5.61-4.12-.06-7.52,3.23-7.58,7.35-.06,4.13,3.23,7.52,7.35,7.59ZM67.22,13.08c.44,0,.86.09,1.27.24.59.22,1.25.12,1.75-.26.5-.38.78-.98.75-1.61,0-.05-.03-.2-.03-.24-.03-1.49.83-2.86,2.19-3.48,1.36-.62,2.96-.36,4.06.64,1.1,1.01,1.5,2.57,1.01,3.99-.26.83.07,1.73.82,2.17.75.44,1.7.32,2.3-.31.7-.73,1.67-1.15,2.68-1.15,2.06,0,3.74,1.67,3.74,3.73s-1.67,3.74-3.74,3.74h-16.8c-2.06,0-3.74-1.67-3.74-3.74s1.67-3.73,3.74-3.73h0Z"/>
      <path class="cls-4" d="M18.69,41.09h-3.74v7.47h3.74v-7.47Z"/>
      <path class="cls-4" d="M9.9,51.74l5.6,5.6c.73.73,1.91.73,2.64,0l5.6-5.6-2.64-2.64-4.28,4.28-4.28-4.28-2.64,2.64h0Z"/>
      <path class="cls-4" d="M37.36,41.09h-3.74v7.47h3.74v-7.47Z"/>
      <path class="cls-4" d="M28.57,51.74l5.6,5.6c.73.73,1.91.73,2.64,0l5.6-5.6-2.64-2.64-4.28,4.28-4.28-4.28-2.64,2.64h0Z"/>
      <g class="cls-2">
        <g>
          <path class="cls-4" d="M88.3,84.59l-5.6,5.6,2.64,2.64,4.28-4.28,4.28,4.28,2.64-2.64-5.6-5.6c-.73-.73-1.91-.73-2.64,0h0Z"/>
          <path class="cls-4" d="M111.83,55.19l-7.47-14.94c-.32-.64-.97-1.04-1.68-1.03h-26.13c-.71,0-1.36.4-1.68,1.03l-7.47,14.94c-.29.58-.26,1.27.08,1.82.34.55.95.88,1.59.88h1.87v20.54c0,1.03.84,1.87,1.87,1.87h33.6c1.03,0,1.87-.84,1.87-1.87v-20.54h1.87c.65,0,1.25-.33,1.6-.88.34-.55.38-1.24.08-1.82h0ZM77.71,42.95h23.82l5.6,11.21h-35.02l5.6-11.21h0ZM93.35,76.57h-7.47v-7.47h7.47v7.47ZM104.55,76.57h-7.47v-9.34c0-1.03-.84-1.87-1.87-1.87h-11.2c-1.03,0-1.87.84-1.87,1.87v9.34h-7.47v-18.68h29.87v18.68Z"/>
        </g>
      </g>
    </g>
  </g>
</svg>