<?xml version="1.0" encoding="UTF-8"?>
<svg id="Camada_2" data-name="Camada 2" xmlns="http://www.w3.org/2000/svg" viewBox="0 0 112.03 112.1">
  <defs>
    <style>
      .cls-1 {
        fill: #18857d;
      }
    </style>
  </defs>
  <g id="Camada_1-2" data-name="Camada 1">
    <g>
      <path class="cls-1" d="M74.69,16.81h-37.34c-3.09,0-5.6,2.51-5.6,5.61v67.25c0,3.1,2.51,5.61,5.6,5.61h37.34c3.09,0,5.6-2.51,5.6-5.61V22.42c0-3.1-2.51-5.61-5.6-5.61ZM46.68,20.55h18.67v1.87c0,1.03-.84,1.87-1.87,1.87h-14.94c-1.03,0-1.87-.84-1.87-1.87v-1.87ZM76.55,89.67c0,1.03-.84,1.87-1.87,1.87h-37.34c-1.03,0-1.87-.84-1.87-1.87V22.42c0-1.03.84-1.87,1.87-1.87h5.6v1.87c0,3.1,2.51,5.61,5.6,5.61h14.94c3.09,0,5.6-2.51,5.6-5.61v-1.87h5.6c1.03,0,1.87.84,1.87,1.87v67.25h0Z"/>
      <path class="cls-1" d="M63.49,46.71h-1.87v-3.74c0-1.03-.84-1.87-1.87-1.87h-7.47c-1.03,0-1.87.84-1.87,1.87v3.74h-1.87c-2.06,0-3.74,1.67-3.74,3.74v22.42c0,2.06,1.67,3.74,3.74,3.74h14.93c2.06,0,3.74-1.67,3.74-3.74v-22.42c0-2.06-1.67-3.74-3.74-3.74h0ZM54.15,44.84h3.74v1.87h-3.74v-1.87ZM48.55,72.86v-22.42h14.93v22.42h-14.93Z"/>
      <path class="cls-1" d="M59.75,65.39h-7.47v3.74h7.47v-3.74Z"/>
      <path class="cls-1" d="M26.01,42.84c-7.29,7.29-7.29,19.13,0,26.42l2.64-2.64c-5.83-5.84-5.83-15.3,0-21.14l-2.64-2.64Z"/>
      <path class="cls-1" d="M21.5,40.2l-2.64-2.64c-10.19,10.22-10.19,26.77,0,36.99l2.64-2.64c-8.74-8.76-8.74-22.95,0-31.71Z"/>
      <path class="cls-1" d="M86.02,42.84l-2.64,2.64c5.83,5.84,5.83,15.3,0,21.14l2.64,2.64c7.29-7.29,7.29-19.13,0-26.42Z"/>
      <path class="cls-1" d="M93.17,37.55l-2.64,2.64c8.74,8.76,8.74,22.94,0,31.7l2.64,2.65c10.19-10.22,10.19-26.77,0-36.99Z"/>
      <path class="cls-1" d="M56.02,0C25.08,0,0,25.09,0,56.05s25.08,56.05,56.02,56.05,56.02-25.09,56.02-56.05C112,25.11,86.94.03,56.02,0ZM56.02,108.36c-28.87,0-52.28-23.42-52.28-52.31S27.14,3.73,56.02,3.73s52.28,23.42,52.28,52.31c-.03,28.88-23.42,52.28-52.28,52.31Z"/>
    </g>
  </g>
</svg>