<?xml version="1.0" encoding="UTF-8"?>
<svg id="Camada_2" data-name="Camada 2" xmlns="http://www.w3.org/2000/svg" xmlns:xlink="http://www.w3.org/1999/xlink" viewBox="0 0 111.43 112.1">
  <defs>
    <style>
      .cls-1 {
        mask: url(#mask);
      }

      .cls-2 {
        fill: #fff;
      }

      .cls-3 {
        fill: #18857d;
      }
    </style>
    <mask id="mask" x="0" y="0" width="111.56" height="112.1" maskUnits="userSpaceOnUse">
      <g id="mask5_0_1" data-name="mask5 0 1">
        <path class="cls-2" d="M111.56,0H0v112.09h111.56V0Z"/>
      </g>
    </mask>
  </defs>
  <g id="Camada_1-2" data-name="Camada 1">
    <g>
      <g class="cls-1">
        <path class="cls-3" d="M74.4,28.87c-.46-1.6-1.92-2.71-3.59-2.71H17.61c-1.67,0-3.13,1.11-3.59,2.71L.14,77.44c-.32,1.13-.1,2.34.61,3.28.71.93,1.81,1.49,2.99,1.48h31.13v3.74h-3.73c-1.03,0-1.87.84-1.87,1.87v1.87h-3.74v3.74h3.74v1.87c0,1.03.84,1.87,1.87,1.87h3.73v3.74h-3.73c-1.03,0-1.87.84-1.87,1.87v7.47c0,1.03.84,1.87,1.87,1.87h26.14c1.03,0,1.87-.84,1.87-1.87v-7.47c0-1.03-.84-1.87-1.87-1.87h-3.74v-3.74h3.74c1.03,0,1.87-.84,1.87-1.87v-1.87h3.74v-3.74h-3.74v-1.87c0-1.03-.84-1.87-1.87-1.87h-3.74v-3.74h31.13c1.17,0,2.28-.55,2.99-1.48.71-.94.93-2.15.61-3.28l-13.87-48.57h0ZM77.21,52.31h-12.71l-1.33-9.34h11.38l2.66,9.34h0ZM60.73,52.31h-14.65v-9.34h13.32l1.33,9.34ZM46.07,39.23v-9.34h11.45l1.33,9.34h-12.78ZM42.34,39.23h-12.78l1.33-9.34h11.45v9.34ZM42.34,42.97v9.34h-14.65l1.34-9.34h13.32ZM23.92,52.31h-12.71l2.66-9.34h11.38l-1.33,9.34h0ZM23.39,56.04l-1.33,9.34H7.47l2.66-9.34h13.25ZM27.15,56.04h15.18v9.34h-16.52l1.33-9.34ZM42.34,69.12v9.34h-18.39l1.33-9.34h17.05ZM46.07,69.12h17.05l1.33,9.34h-18.39v-9.34ZM46.07,65.39v-9.34h15.18l1.34,9.34h-16.52ZM65.03,56.04h13.24l2.66,9.34h-14.58l-1.33-9.34h0ZM73.47,39.23h-10.84l-1.34-9.34h9.51l2.66,9.34h0ZM17.61,29.89h9.51l-1.34,9.34h-10.84l2.66-9.34h0ZM6.41,69.12h15.11l-1.33,9.34H3.74l2.66-9.34h0ZM33.01,93.41v-3.74h1.87v3.74h-1.87ZM55.41,108.36h-22.41v-3.74h22.41v3.74ZM55.41,89.67v3.74h-1.87v-3.74h1.87ZM49.81,100.88h-11.2v-18.68h11.2v18.68ZM68.23,78.47l-1.33-9.34h15.11l2.66,9.34h-16.45,0Z"/>
      </g>
      <path class="cls-3" d="M92.75,7.47c-6.19,0-11.21,5.02-11.21,11.21s5.02,11.21,11.21,11.21,11.2-5.02,11.2-11.21c0-6.19-5.02-11.2-11.2-11.21ZM92.75,26.16c-4.13,0-7.47-3.35-7.47-7.47s3.34-7.47,7.47-7.47,7.47,3.35,7.47,7.47-3.34,7.47-7.47,7.47Z"/>
      <path class="cls-3" d="M94.62,0h-3.74v3.74h3.74V0Z"/>
      <path class="cls-3" d="M78.23,6.79l2.64-2.64,2.64,2.64-2.64,2.64-2.64-2.64Z"/>
      <path class="cls-3" d="M77.82,16.81h-3.74v3.74h3.74v-3.74Z"/>
      <path class="cls-3" d="M78.23,30.57l2.64-2.64,2.64,2.64-2.64,2.64-2.64-2.64Z"/>
      <path class="cls-3" d="M94.62,33.63h-3.74v3.74h3.74v-3.74Z"/>
      <path class="cls-3" d="M102,30.57l2.64-2.64,2.64,2.64-2.64,2.64-2.64-2.64Z"/>
      <path class="cls-3" d="M111.43,16.81h-3.74v3.74h3.74v-3.74Z"/>
      <path class="cls-3" d="M102,6.79l2.64-2.64,2.64,2.64-2.64,2.64-2.64-2.64Z"/>
    </g>
  </g>
</svg>